<?xml version="1.0" standalone="no"?>
<!DOCTYPE svg PUBLIC "-//W3C//DTD SVG 20010904//EN"
 "http://www.w3.org/TR/2001/REC-SVG-20010904/DTD/svg10.dtd">
<svg version="1.0" xmlns="http://www.w3.org/2000/svg"
viewBox="0 0 478.000000 185.000000"
 preserveAspectRatio="xMidYMid meet">

<g transform="translate(0.000000,185.000000) scale(0.100000,-0.100000)"
fill="#fff" stroke="none">
<path d="M413 1689 l5 -141 -26 25 c-36 34 -73 47 -133 47 -90 0 -140 -34
-180 -125 -19 -40 -23 -69 -23 -145 -1 -114 19 -182 69 -233 69 -71 190 -74
257 -6 16 16 31 29 34 29 2 0 10 -16 18 -35 15 -34 17 -35 70 -35 l56 0 0 380
0 380 -76 0 -77 0 6 -141z m-52 -195 c41 -21 59 -68 59 -154 0 -117 -29 -160
-107 -160 -75 0 -113 54 -113 162 0 131 72 199 161 152z"/>
<path d="M2010 1425 l0 -358 158 5 c173 6 231 20 311 78 116 85 155 308 80
460 -35 68 -71 103 -149 139 -51 24 -67 26 -227 29 l-173 4 0 -357z m323 221
c73 -31 109 -102 109 -217 0 -162 -78 -239 -242 -239 l-40 0 0 235 0 235 70 0
c39 0 85 -6 103 -14z"/>
<path d="M4327 1709 c-43 -25 -62 -123 -31 -167 33 -47 106 -8 120 63 15 83
-31 138 -89 104z"/>
<path d="M4489 1607 c-98 -65 -78 -196 24 -153 68 28 102 127 55 160 -30 21
-39 20 -79 -7z"/>
<path d="M840 1607 c-50 -16 -114 -84 -133 -142 -10 -27 -17 -78 -17 -115 0
-180 93 -284 255 -285 179 -1 273 107 263 300 -6 106 -41 175 -113 220 -43 27
-58 30 -134 32 -47 1 -102 -3 -121 -10z m154 -107 c45 -17 66 -65 66 -153 0
-119 -31 -167 -110 -167 -77 0 -111 50 -112 163 0 40 5 83 10 97 22 58 85 84
146 60z"/>
<path d="M1560 1609 c-14 -5 -37 -22 -53 -37 -28 -27 -42 -23 -49 13 -3 17
-12 20 -61 23 l-57 3 0 -271 0 -270 74 0 75 0 3 184 c3 169 5 187 24 213 39
53 128 56 161 6 15 -23 19 -56 21 -215 l4 -188 69 0 69 0 0 208 c0 196 -1 210
-22 252 -35 67 -65 84 -156 87 -42 2 -88 -2 -102 -8z"/>
<path d="M2860 1607 c-50 -16 -114 -84 -133 -142 -10 -27 -17 -78 -17 -115 0
-180 93 -284 255 -285 179 -1 273 107 263 300 -6 106 -41 175 -113 220 -43 27
-58 30 -134 32 -47 1 -102 -3 -121 -10z m154 -107 c45 -17 66 -65 66 -153 0
-119 -31 -167 -110 -167 -77 0 -111 50 -112 163 0 40 5 83 10 97 22 58 85 84
146 60z"/>
<path d="M3424 1602 c-60 -28 -87 -73 -92 -147 -5 -71 19 -132 61 -154 l26
-14 -35 -32 c-42 -40 -45 -80 -9 -119 l24 -26 -33 -14 c-50 -21 -76 -60 -76
-117 0 -55 33 -103 86 -125 79 -33 261 -26 338 13 72 36 108 91 108 163 0 109
-58 149 -215 150 -105 0 -137 9 -137 40 0 27 13 32 89 35 81 4 129 23 169 69
37 42 49 95 34 150 -6 22 -9 43 -6 47 2 4 20 10 39 13 32 6 35 10 35 41 l0 35
-48 0 c-27 0 -109 3 -183 6 -119 4 -139 3 -175 -14z m189 -93 c27 -34 23 -114
-8 -144 -33 -34 -83 -34 -115 0 -19 20 -24 37 -24 77 0 43 4 54 29 75 23 20
36 24 64 19 20 -3 44 -15 54 -27z m64 -464 c28 -19 30 -48 3 -75 -30 -30 -66
-41 -142 -42 -54 -1 -74 3 -96 19 -50 37 -35 92 32 113 43 13 174 3 203 -15z"/>
<path d="M4127 1598 c-24 -38 -28 -76 -13 -112 29 -71 90 -64 114 12 12 37 12
46 -5 79 -14 31 -24 39 -50 41 -24 2 -35 -2 -46 -20z"/>
<path d="M4210 1409 c-57 -26 -120 -86 -120 -115 0 -29 22 -51 60 -58 16 -3
44 -9 62 -12 18 -4 53 -27 82 -54 63 -58 79 -64 108 -40 21 16 23 27 23 97 -1
167 -87 240 -215 182z"/>
<path d="M4495 1388 c-47 -46 -52 -102 -9 -118 35 -14 69 -3 104 32 32 32 41
83 18 106 -24 24 -76 14 -113 -20z"/>
<path d="M2823 900 c-75 -30 -81 -190 -7 -190 40 0 60 16 79 62 20 51 13 101
-18 123 -24 17 -24 17 -54 5z"/>
<path d="M4430 840 c-74 -74 -33 -214 49 -171 29 16 54 68 54 113 0 69 -59
102 -103 58z"/>
<path d="M2615 787 c-48 -73 -10 -183 55 -162 55 18 66 144 16 177 -22 15 -56
8 -71 -15z"/>
<path d="M2956 779 c-43 -37 -56 -87 -32 -124 52 -79 191 51 146 136 -17 31
-72 25 -114 -12z"/>
<path d="M4262 763 c-19 -7 -42 -58 -42 -93 0 -86 70 -123 110 -57 46 74 0
177 -68 150z"/>
<path d="M4610 757 c-54 -27 -90 -123 -58 -155 35 -35 118 2 144 64 19 45 18
60 -6 84 -23 23 -45 25 -80 7z"/>
<path d="M3643 660 c-75 -30 -81 -190 -7 -190 40 0 60 16 79 62 20 51 13 101
-18 123 -24 17 -24 17 -54 5z"/>
<path d="M2695 597 c-65 -31 -115 -82 -115 -118 0 -31 31 -59 65 -59 52 0 101
-24 146 -71 65 -68 97 -64 119 12 11 39 -3 147 -26 190 -33 64 -111 83 -189
46z"/>
<path d="M3014 600 c-30 -12 -74 -68 -74 -94 0 -52 62 -71 114 -37 93 62 60
172 -40 131z"/>
<path d="M3435 547 c-48 -73 -10 -183 55 -162 55 18 66 144 16 177 -22 15 -56
8 -71 -15z"/>
<path d="M3776 539 c-43 -37 -56 -87 -32 -124 52 -79 191 51 146 136 -17 31
-72 25 -114 -12z"/>
<path d="M4313 550 c-46 -24 -113 -91 -113 -115 0 -25 37 -53 77 -60 74 -13
101 -26 141 -70 49 -54 91 -61 110 -20 30 65 5 210 -43 255 -36 34 -116 38
-172 10z"/>
<path d="M4604 526 c-56 -56 -44 -116 24 -116 67 0 127 73 104 125 -10 21 -19
25 -53 25 -33 0 -47 -6 -75 -34z"/>
<path d="M3515 357 c-65 -31 -115 -82 -115 -118 0 -31 31 -59 65 -59 52 0 101
-24 146 -71 65 -68 97 -64 119 12 11 39 -3 147 -26 190 -33 64 -111 83 -189
46z"/>
<path d="M3834 360 c-30 -12 -74 -68 -74 -94 0 -52 62 -71 114 -37 93 62 60
172 -40 131z"/>
</g>
</svg>
